<?xml version="1.0" encoding="UTF-8" standalone="no"?>
<!-- Created with Inkscape (http://www.inkscape.org/) -->

<svg
   xmlns:dc="http://purl.org/dc/elements/1.1/"
   xmlns:cc="http://creativecommons.org/ns#"
   xmlns:rdf="http://www.w3.org/1999/02/22-rdf-syntax-ns#"
   xmlns:svg="http://www.w3.org/2000/svg"
   xmlns="http://www.w3.org/2000/svg"
   xmlns:sodipodi="http://sodipodi.sourceforge.net/DTD/sodipodi-0.dtd"
   xmlns:inkscape="http://www.inkscape.org/namespaces/inkscape"
   width="200"
   height="200"
   id="svg2"
   version="1.1"
   inkscape:version="0.47 r22583"
   sodipodi:docname="marave.svg">
  <defs
     id="defs4">
    <inkscape:perspective
       sodipodi:type="inkscape:persp3d"
       inkscape:vp_x="0 : 526.18109 : 1"
       inkscape:vp_y="0 : 1000 : 0"
       inkscape:vp_z="744.09448 : 526.18109 : 1"
       inkscape:persp3d-origin="372.04724 : 350.78739 : 1"
       id="perspective10" />
    <inkscape:perspective
       id="perspective2834"
       inkscape:persp3d-origin="0.5 : 0.33333333 : 1"
       inkscape:vp_z="1 : 0.5 : 1"
       inkscape:vp_y="0 : 1000 : 0"
       inkscape:vp_x="0 : 0.5 : 1"
       sodipodi:type="inkscape:persp3d" />
  </defs>
  <sodipodi:namedview
     id="base"
     pagecolor="#ffffff"
     bordercolor="#666666"
     borderopacity="1.0"
     inkscape:pageopacity="0.0"
     inkscape:pageshadow="2"
     inkscape:zoom="2.8364203"
     inkscape:cx="92.664864"
     inkscape:cy="98.514982"
     inkscape:document-units="px"
     inkscape:current-layer="layer1"
     showgrid="false"
     inkscape:window-width="1680"
     inkscape:window-height="1005"
     inkscape:window-x="-4"
     inkscape:window-y="20"
     inkscape:window-maximized="1" />
  <metadata
     id="metadata7">
    <rdf:RDF>
      <cc:Work
         rdf:about="">
        <dc:format>image/svg+xml</dc:format>
        <dc:type
           rdf:resource="http://purl.org/dc/dcmitype/StillImage" />
        <dc:title></dc:title>
      </cc:Work>
    </rdf:RDF>
  </metadata>
  <g
     inkscape:label="Layer 1"
     inkscape:groupmode="layer"
     id="layer1"
     transform="translate(0,-852.36218)">
    <g
       id="g3628"
       inkscape:export-filename="C:\Documents and Settings\Pierpaolo\My Documents\My Pictures\marave.png"
       inkscape:export-xdpi="72"
       inkscape:export-ydpi="72">
      <rect
         y="853.64307"
         x="98.281967"
         height="197.43826"
         width="97.438271"
         id="rect2824-1"
         style="fill:#000000;fill-opacity:1;stroke:#000000;stroke-width:2.56173420000000010;stroke-linejoin:miter;stroke-miterlimit:0;stroke-opacity:1;stroke-dasharray:none" />
      <flowRoot
         transform="matrix(2.4806273,0,0,2.4806273,-45.365153,687.85133)"
         style="font-size:100px;font-style:normal;font-weight:normal;fill:#00ff00;fill-opacity:1;stroke:none;font-family:Frutugira;-inkscape-font-specification:Frutugira"
         id="flowRoot2816"
         xml:space="preserve"><flowRegion
           id="flowRegion2818"><rect
             style="font-size:100px;font-family:Frutugira;-inkscape-font-specification:Frutugira;fill:#00ff00"
             y="36.77177"
             x="13.745535"
             height="136.88261"
             width="174.11011"
             id="rect2820" /></flowRegion><flowPara
           id="flowPara2822">m</flowPara></flowRoot>      <rect
         y="853.64307"
         x="0.93543911"
         height="197.43826"
         width="97.438271"
         id="rect2824"
         style="fill:none;fill-opacity:1;stroke:#000000;stroke-width:2.56173420000000010;stroke-linejoin:miter;stroke-miterlimit:0;stroke-opacity:1;stroke-dasharray:none" />
      <path
         transform="translate(0,852.36218)"
         id="path3620"
         d="m 99.952551,105.58642 c 0,-50.404726 0.04644,-55.85207 0.473169,-55.497918 1.02286,0.848895 4.03658,5.165545 5.29117,7.578704 l 1.32304,2.54483 1.34106,-2.353256 c 4.50504,-7.905312 11.74787,-13.677583 20.19693,-16.096213 2.01854,-0.577826 3.16647,-0.692106 7.00154,-0.697019 4.20555,-0.0054 4.88112,0.07434 8.12075,0.958365 18.25289,4.98083 32.47951,16.214592 40.30788,31.828286 3.90818,7.794875 5.54691,15.632685 5.54691,26.530121 0,15.80533 -4.70978,32.09103 -13.2331,45.75803 -3.55426,5.6992 -3.65667,5.7989 -6.96211,6.77838 -2.43341,0.72107 -9.0173,2.32818 -12.75959,3.11458 l -0.99761,0.20964 1.10849,-2.39515 c 7.42028,-16.03325 10.7603,-30.85634 11.32363,-50.25448 0.49217,-16.947509 -1.9462,-27.726931 -8.16024,-36.074463 -2.02204,-2.71628 -5.47552,-6.041755 -7.85511,-7.563962 -6.81785,-4.361324 -17.15198,-4.515783 -24.1333,-0.360709 -2.1965,1.307294 -6.3647,5.367015 -7.96798,7.760606 -2.91228,4.347847 -5.55098,10.797799 -6.8473,16.737325 -1.45763,6.678614 -1.53974,8.024492 -1.80537,29.592953 -0.25009,20.30573 -0.50796,27.30631 -1.37428,37.30887 -0.72981,8.42645 -0.83808,9.41055 -1.07806,9.79884 -0.15655,0.25331 -1.62278,0.42397 -4.5458,0.52909 l -4.314719,0.15516 0,-55.89061 z"
         style="fill:#ffffff;fill-opacity:1;stroke:#000000;stroke-width:0.91743118000000001;stroke-linejoin:miter;stroke-miterlimit:0;stroke-opacity:1;stroke-dasharray:none" />
      <path
         transform="translate(0,852.36218)"
         id="path3622"
         d="m 89.968249,161.16909 -1.268704,-0.11555 -0.183605,-4.34173 C 88.414955,154.32386 88.187334,148.65449 88.010117,144.1132 87.832897,139.57192 87.470316,132.14073 87.20438,127.59944 86.881417,122.08431 86.690873,112.87215 86.630548,99.856694 86.574845,87.83763 86.407353,79.257869 86.193454,77.466376 84.931769,66.89933 79.9322,58.683139 73.337025,56.338387 c -6.617,-2.352511 -16.675174,0.03381 -24.856302,5.897204 -10.313271,7.391495 -17.498963,20.358021 -18.528529,33.43459 -0.294321,3.73818 0.0894,14.534269 0.700076,19.696839 1.368078,11.56555 5.244954,26.42419 9.614841,36.85016 0.669719,1.59786 1.180333,2.94411 1.1347,2.99168 -0.169354,0.17651 -6.139527,-1.23604 -11.401131,-2.69752 -6.334007,-1.75936 -5.82292,-1.36153 -9.355619,-7.28245 C 15.077743,135.89787 11.458447,125.68774 9.7242849,114.42109 8.8951138,109.03406 8.5803269,97.964471 9.1064326,92.694107 10.66093,77.12163 15.517328,62.715846 23.222024,50.822299 l 1.90895,-2.946799 2.013235,0.195748 c 3.122022,0.303557 10.546919,1.479189 10.826203,1.714183 0.137652,0.115823 0.04934,0.691483 -0.196237,1.279245 -0.446147,1.06778 -2.959238,9.23954 -2.959238,9.622486 0,0.111379 2.029816,-1.791479 4.510703,-4.228575 9.714327,-9.542855 18.597551,-14.728375 28.42126,-16.590714 1.377104,-0.261066 4.359434,-0.634587 6.627398,-0.830046 4.871067,-0.419801 8.396284,0.02201 12.353954,1.548298 2.852052,1.099903 6.905489,3.403195 8.790244,4.994897 l 1.375951,1.16201 0,57.324228 0,57.32423 -2.828746,-0.0534 c -1.55581,-0.0294 -3.399663,-0.10542 -4.097452,-0.16897 z"
         style="fill:#000000;fill-opacity:1;stroke:#000000;stroke-width:0.91743118000000001;stroke-linejoin:miter;stroke-miterlimit:0;stroke-opacity:1;stroke-dasharray:none" />
      <path
         transform="translate(0,852.36218)"
         id="path3624"
         d="m 99.679881,50.173771 -0.0084,-1.113499 0.275441,0.270325 0.275438,0.270325 -0.14694,0.115585 c -0.189501,0.149062 -0.275814,0.419341 -0.33735,1.056365 -0.04363,0.451681 -0.05072,0.378636 -0.05814,-0.599101 z"
         style="fill:#000000;fill-opacity:1;stroke:#000000;stroke-width:0.18601508;stroke-linejoin:miter;stroke-miterlimit:0;stroke-opacity:1;stroke-dasharray:none" />
      <path
         transform="translate(0,852.36218)"
         id="path3626"
         d="m 27.745602,67.564426 c 0,-10.913344 0.01405,-19.842444 0.03122,-19.842444 0.422681,0 4.953906,0.651596 7.378381,1.06102 2.801058,0.473019 3.128397,0.569733 3.258056,0.962605 0.104685,0.317198 0.03696,0.63785 -0.416001,1.969545 -0.830396,2.44136 -2.414116,7.585339 -2.3539,7.645555 0.01775,0.01775 1.158048,-1.052098 2.533989,-2.377446 1.375941,-1.325348 2.960882,-2.82919 3.52209,-3.34187 8.511052,-7.7751 16.484711,-12.210246 25.233342,-14.035409 1.963073,-0.409541 5.449342,-0.852648 8.339676,-1.059977 1.264522,-0.09071 3.696577,-0.07662 4.780855,0.02769 4.144413,0.398712 7.683015,1.647452 12.270527,4.330155 1.535207,0.897764 2.810824,1.79633 4.039615,2.845573 0.312028,0.266439 0.584075,0.484434 0.604549,0.484434 0.02047,0 0.03722,-8.231167 0.03722,-18.291483 l 0,-18.2914822 30.320449,0 30.32046,0 0,19.1288772 0,19.128877 -1.11615,-0.558729 c -1.96382,-0.983063 -4.46116,-2.071402 -6.56731,-2.862036 -2.18716,-0.821047 -5.53189,-1.859719 -7.72479,-2.398856 -2.06354,-0.507334 -2.74401,-0.567698 -6.38652,-0.566539 -2.95706,9.43e-4 -4.3177,0.05753 -5.26822,0.219109 -2.32988,0.396051 -5.91828,1.72228 -8.47751,3.133188 -4.39652,2.423805 -8.10178,5.672018 -11.0988,9.729753 -0.9695,1.312624 -1.73813,2.534776 -3.09138,4.915429 l -0.52075,0.916105 -0.37386,-0.04075 c -0.20561,-0.02241 -0.3772,-0.04403 -0.38131,-0.04803 -0.004,-0.004 -0.33247,-0.629961 -0.72968,-1.391011 -0.89036,-1.705923 -1.1292,-2.127984 -1.87752,-3.317918 -1.32655,-2.109374 -3.24524,-4.719879 -3.37191,-4.587709 -0.13491,0.140766 -0.19478,5.542556 -0.22717,20.496763 l -0.0343,15.857785 -7.146425,0 -7.146421,0 -0.03742,-1.317607 C 86.048058,85.362908 86.0025,83.612041 85.9674,82.196776 85.866943,78.146192 85.787576,77.206655 85.345042,74.82937 84.006919,67.640988 80.832301,61.758803 76.57456,58.578725 74.100723,56.731033 71.329551,55.89687 67.673398,55.899348 c -5.875208,0.004 -12.236524,2.159679 -18.183449,6.161939 -2.954096,1.988096 -5.917309,4.702264 -8.478027,7.765486 -3.872517,4.632445 -7.080664,10.629342 -8.856572,16.555342 l -0.297307,0.992081 -2.056221,0.01634 -2.05622,0.01634 0,-19.842446 z M 99.737381,51.663445 c 0.01495,-0.440009 -6.2e-4,-0.622992 -0.05352,-0.640718 -0.05713,-0.01904 -0.07197,0.498935 -0.06381,2.228036 l 0.01063,2.252849 0.04288,-1.61213 c 0.02359,-0.886672 0.0523,-1.889288 0.06382,-2.228037 z m 0.585109,-2.019308 c -0.0211,-0.0341 -0.0506,-0.062 -0.0657,-0.062 -0.015,0 -0.0273,0.0279 -0.0273,0.062 0,0.0341 0.0296,0.062 0.0657,0.062 0.0361,0 0.0484,-0.0279 0.0273,-0.062 z m -0.589053,-0.654712 c 0,-0.01504 -0.0279,-0.02734 -0.062,-0.02734 -0.0341,0 -0.062,0.02955 -0.062,0.06566 0,0.03612 0.0279,0.04842 0.062,0.02734 0.0341,-0.02108 0.062,-0.05063 0.062,-0.06567 z m 36.539683,-8.382172 c -0.31368,-0.01123 -0.84382,-0.01128 -1.1781,-1.24e-4 -0.33427,0.01117 -0.0776,0.02036 0.57033,0.02042 0.64795,5.9e-5 0.92145,-0.0091 0.60777,-0.02031 l 0,1.5e-5 z"
         style="fill:#000000;fill-opacity:1;stroke:#000000;stroke-width:0.18601508;stroke-linejoin:miter;stroke-miterlimit:0;stroke-opacity:1;stroke-dasharray:none" />
    </g>
    <path
       style="fill:#ffffff;fill-opacity:1;stroke:#000000;stroke-width:1.05767119;stroke-linejoin:miter;stroke-miterlimit:0;stroke-opacity:1;stroke-dasharray:none"
       d="m 3.1153712,100.00428 0,-96.600636 46.5375318,0 46.537532,0 0,13.340474 c 0,7.337261 -0.10356,16.43263 -0.230132,20.211931 l -0.230131,6.871456 -2.854743,-1.637589 C 91.30532,41.289239 88.751481,40.007419 87.20023,39.341421 l -2.820457,-1.210907 -7.756255,0.0013 c -8.472031,0.0014 -9.922281,0.21335 -15.907812,2.324486 -6.844821,2.414216 -12.318918,5.911444 -19.964869,12.754926 -1.502774,1.345054 -2.732317,2.309249 -2.732317,2.142658 0,-0.16659 0.317301,-1.412435 0.705114,-2.768546 0.788797,-2.758286 0.814069,-2.984261 0.405691,-3.627946 -0.306996,-0.483891 -10.365318,-2.168497 -13.02644,-2.181718 -1.929807,-0.0096 -2.527446,0.615536 -5.5255,5.779619 -5.94961,10.248073 -9.684762,20.704774 -11.8485274,33.170409 -0.9459229,5.449541 -1.3021952,17.731418 -0.710774,24.502708 1.0362117,11.86379 5.0940914,24.71973 11.0002034,34.85022 2.792415,4.78971 3.86998,6.11526 5.705879,7.01899 1.669544,0.82185 9.066125,2.88659 13.737695,3.83485 2.866514,0.58187 3.129067,0.58518 3.667982,0.0463 0.538915,-0.53891 0.400949,-1.10564 -1.927461,-7.9173 -3.768371,-11.02419 -5.829795,-18.77254 -7.534871,-28.32157 -0.710749,-3.98045 -0.78713,-5.57433 -0.802144,-16.73886 l -0.01659,-12.339489 1.471079,-4.273439 c 1.76879,-5.138276 3.229359,-8.111312 6.074495,-12.364839 4.961937,-7.418174 11.70793,-12.623267 20.415585,-15.752316 2.306777,-0.828925 3.08272,-0.926048 7.398635,-0.926048 4.537156,0 4.932436,0.05608 6.700577,0.950681 3.023525,1.529766 5.515536,4.325896 7.479321,8.392081 0.93648,1.939064 2.038521,4.874102 2.448978,6.522306 0.80871,3.247396 0.973749,6.942874 1.779197,39.838943 0.408712,16.69265 1.623169,46.11845 1.976258,47.88389 0.264654,1.32327 0.401224,1.36918 4.983828,1.67575 l 3.61371,0.24174 0,16.87732 0,16.87732 -46.537532,0 -46.5375318,0 0,-96.60063 z"
       id="path3642"
       transform="translate(0,852.36218)"
       inkscape:export-filename="C:\Documents and Settings\Pierpaolo\My Documents\My Pictures\marave.png"
       inkscape:export-xdpi="72"
       inkscape:export-ydpi="72" />
    <path
       style="fill:#ffffff;fill-opacity:1;stroke:#000000;stroke-width:1.05767119000000000;stroke-linejoin:miter;stroke-miterlimit:0;stroke-opacity:1;stroke-dasharray:none"
       d="m 2.410257,100.00428 0,-97.3057501 47.242646,0 47.242646,0 -0.0011,15.7769281 c -7.05e-4,8.677311 -0.104371,18.26502 -0.230498,21.306021 l -0.229324,5.529089 -1.972983,-1.338698 c -2.636866,-1.789149 -6.44321,-3.679134 -9.414462,-4.674617 -2.152551,-0.721184 -3.074428,-0.811343 -8.071032,-0.78933 -3.671174,0.01618 -6.75524,0.231165 -8.832108,0.615685 -10.003151,1.852021 -18.729534,6.756262 -28.279713,15.893247 -1.602579,1.533243 -3.006441,2.695059 -3.119689,2.581811 -0.113248,-0.113248 0.285712,-1.788321 0.886582,-3.722386 1.23718,-3.982216 1.298609,-4.485682 0.580916,-4.761089 -0.503254,-0.193113 -8.802756,-1.439011 -11.746724,-1.763381 -1.774773,-0.195546 -1.993002,0.03191 -5.190444,5.409822 -6.381211,10.732832 -10.436288,22.608 -12.3307878,36.110329 -0.6371598,4.541115 -0.7333815,17.491659 -0.1686037,22.692459 1.3138415,12.0986 5.4140245,24.16839 11.8742395,34.95442 2.432127,4.06071 3.323419,4.84777 6.61024,5.83721 4.426834,1.33263 10.900606,2.94748 12.856082,3.20688 1.518935,0.20149 1.780582,0.15019 1.780582,-0.34913 0,-0.32194 -0.793634,-2.6388 -1.763628,-5.1486 -2.422197,-6.26726 -4.957804,-14.877 -6.656559,-22.60256 -2.252312,-10.24301 -2.635562,-13.8661 -2.662142,-25.16674 -0.02278,-9.685483 -0.0053,-9.935778 0.92909,-13.275741 1.362957,-4.872057 2.822379,-8.477111 4.895268,-12.09226 5.620876,-9.802884 12.948344,-15.987116 23.062103,-19.463938 2.518523,-0.865799 3.329968,-0.971245 7.579976,-0.985037 4.526558,-0.0147 4.859009,0.03339 6.792143,0.982255 5.639633,2.768176 9.585674,9.420339 11.224338,18.921776 0.183929,1.066486 0.48619,11.696081 0.671688,23.621325 0.285423,18.34898 0.87591,35.48252 1.965382,57.02728 0.120148,2.376 0.343158,4.39707 0.495575,4.49127 0.152418,0.0942 2.119549,0.2765 4.371398,0.40511 l 4.094153,0.23384 0,17.57412 0,17.57413 -47.242646,0 -47.242646,0 0,-97.30575 z"
       id="path3640"
       transform="translate(0,852.36218)"
       inkscape:export-filename="C:\Documents and Settings\Pierpaolo\My Documents\My Pictures\marave.png"
       inkscape:export-xdpi="72"
       inkscape:export-ydpi="72" />
  </g>
</svg>
