<?xml version="1.0" encoding="UTF-8" standalone="no"?>
<!-- Created with Inkscape (http://www.inkscape.org/) -->

<svg
   xmlns:dc="http://purl.org/dc/elements/1.1/"
   xmlns:cc="http://creativecommons.org/ns#"
   xmlns:rdf="http://www.w3.org/1999/02/22-rdf-syntax-ns#"
   xmlns:svg="http://www.w3.org/2000/svg"
   xmlns="http://www.w3.org/2000/svg"
   xmlns:sodipodi="http://sodipodi.sourceforge.net/DTD/sodipodi-0.dtd"
   xmlns:inkscape="http://www.inkscape.org/namespaces/inkscape"
   version="1.0"
   width="162.5"
   height="162.5"
   id="svg101"
   sodipodi:version="0.32"
   inkscape:version="0.47 r22583"
   sodipodi:docname="plus.svg"
   inkscape:output_extension="org.inkscape.output.svg.inkscape">
  <metadata
     id="metadata9">
    <rdf:RDF>
      <cc:Work
         rdf:about="">
        <dc:format>image/svg+xml</dc:format>
        <dc:type
           rdf:resource="http://purl.org/dc/dcmitype/StillImage" />
      </cc:Work>
    </rdf:RDF>
  </metadata>
  <sodipodi:namedview
     inkscape:window-height="845"
     inkscape:window-width="712"
     inkscape:pageshadow="2"
     inkscape:pageopacity="0.0"
     guidetolerance="10.0"
     gridtolerance="10.0"
     objecttolerance="10.0"
     borderopacity="1.0"
     bordercolor="#666666"
     pagecolor="#ffffff"
     id="base"
     showgrid="false"
     inkscape:zoom="2.8553846"
     inkscape:cx="118.3827"
     inkscape:cy="64.434997"
     inkscape:window-x="0"
     inkscape:window-y="0"
     inkscape:current-layer="svg101"
     inkscape:window-maximized="0" />
  <defs
     id="defs7">
    <inkscape:perspective
       sodipodi:type="inkscape:persp3d"
       inkscape:vp_x="0 : 81.25 : 1"
       inkscape:vp_y="0 : 1000 : 0"
       inkscape:vp_z="162.5 : 81.25 : 1"
       inkscape:persp3d-origin="81.25 : 54.166667 : 1"
       id="perspective11" />
    <inkscape:perspective
       id="perspective2839"
       inkscape:persp3d-origin="0.5 : 0.33333333 : 1"
       inkscape:vp_z="1 : 0.5 : 1"
       inkscape:vp_y="0 : 1000 : 0"
       inkscape:vp_x="0 : 0.5 : 1"
       sodipodi:type="inkscape:persp3d" />
  </defs>
  <path
     style="fill:#000000;stroke:none"
     d="m 116.78674,96.385215 c 5.54044,-9.135956 8.78968,-19.82439 8.79545,-31.286178 C 125.57642,31.665939 98.503283,4.5870336 65.087498,4.575491 31.66594,4.5870336 4.5812633,31.665939 4.5812633,65.093266 c 0,33.410014 27.0846767,60.488924 60.5062347,60.488924 11.467559,0 22.155993,-3.24924 31.291949,-8.78968 l 41.137773,41.132 20.40152,-20.41306 -41.132,-41.126235 z M 65.087498,102.51433 C 44.414728,102.46816 27.701062,85.754494 27.666434,65.093266 27.701062,44.420496 44.420499,27.706832 65.087498,27.660662 85.742955,27.706832 102.47394,44.420496 102.50856,65.093266 102.46816,85.754494 85.742955,102.46816 65.087498,102.51433 z M 76.624312,37.194837 H 53.539142 V 53.54491 H 37.18907 v 23.090942 h 16.350072 v 16.350072 h 23.08517 V 76.63008 H 92.968613 V 53.550681 H 76.618541 V 37.194837 z"
     id="path10" />
</svg>
